<svg xmlns="http://www.w3.org/2000/svg" version="1.1" xmlns:xlink="http://www.w3.org/1999/xlink" xmlns:svgjs="http://svgjs.dev/svgjs" width="1500" height="1500" viewBox="0 0 1500 1500"><rect width="1500" height="1500" fill="#0b0c10"></rect><g transform="matrix(0.6666666666666666,0,0,0.6666666666666666,249.39393939393938,435.99032258064517)"><svg viewBox="0 0 396 248" data-background-color="#0b0c10" preserveAspectRatio="xMidYMid meet" height="939" width="1500" xmlns="http://www.w3.org/2000/svg" xmlns:xlink="http://www.w3.org/1999/xlink"><g id="tight-bounds" transform="matrix(1,0,0,1,0.2400000000000091,0.4000000000000057)"><svg viewBox="0 0 395.52 247.2" height="247.2" width="395.52"><g><svg></svg></g><g><svg viewBox="0 0 395.52 247.2" height="247.2" width="395.52"><g transform="matrix(1,0,0,1,75.54432,79.69865492468134)"><svg viewBox="0 0 244.43135999999998 87.8026901506373" height="87.8026901506373" width="244.43135999999998"><g><svg viewBox="0 0 244.43135999999998 87.8026901506373" height="87.8026901506373" width="244.43135999999998"><g><svg viewBox="0 0 244.43135999999998 87.8026901506373" height="87.8026901506373" width="244.43135999999998"><g><svg viewBox="0 0 244.43135999999998 87.8026901506373" height="87.8026901506373" width="244.43135999999998"><g id="textblocktransform"><svg viewBox="0 0 244.43135999999998 87.8026901506373" height="87.8026901506373" width="244.43135999999998" id="textblock"><g><svg viewBox="0 0 244.43135999999998 87.8026901506373" height="87.8026901506373" width="244.43135999999998"><g transform="matrix(1,0,0,1,0,0)"><svg width="244.43135999999998" viewBox="0 -29.79 84.27 30.28" height="87.8026901506373" data-palette-color="#ffffff"><path d="M19.38 0L29.93 0Q29.93-1.07 29.15-1.22L29.15-1.22Q28.91-1.27 28.66-1.27L28.66-1.27 27-1.27 15.82-29.3 14.01-29.3 3.08-1.27 0-1.27 0 0 8.69 0Q8.69-1.07 7.91-1.22L7.91-1.22Q7.67-1.27 7.42-1.27L7.42-1.27 5.03-1.27 8.69-10.74 18.9-10.74 22.56-1.27 19.38-1.27 19.38 0ZM13.77-23.97L18.36-12.16 9.23-12.16 13.77-23.97ZM53.66-7.67L53.66-7.67Q53.66-12.01 48.97-14.65L48.97-14.65Q48.04-15.14 43.26-17.24L43.26-17.24Q38.91-19.09 37.79-21.04L37.79-21.04Q37.2-22.12 37.2-23.34L37.2-23.34Q37.2-26.61 40.38-27.88L40.38-27.88Q41.75-28.42 43.41-28.42L43.41-28.42Q47.51-28.42 49.66-25.63L49.66-25.63Q51.07-23.73 51.02-21L51.02-21 52.49-21 52.49-29.54Q51.32-29.54 51.12-28.81L51.12-28.81Q51.02-28.47 51.02-27.88L51.02-27.88Q47.56-29.79 43.21-29.79L43.21-29.79Q37.94-29.79 35.01-26.86L35.01-26.86Q33.05-24.8 33.05-22.07L33.05-22.07Q33.05-17.97 37.64-15.38L37.64-15.38Q38.47-14.94 43.21-12.89L43.21-12.89Q47.6-10.94 48.78-8.94L48.78-8.94Q49.41-7.81 49.41-6.49L49.41-6.49Q49.41-3.08 46.09-1.56L46.09-1.56Q44.53-0.88 42.62-0.88L42.62-0.88Q35.15-0.98 34.32-10.01L34.32-10.01 32.86-10.01 32.86 0.1Q34.03 0.1 34.23-0.59L34.23-0.59Q34.32-0.98 34.32-2L34.32-2Q38.08 0.49 42.87 0.49L42.87 0.49Q48.48 0.49 51.56-2.54L51.56-2.54Q53.66-4.69 53.66-7.67ZM71.19 0.24L71.77 0.24 81.83-28.03 84.27-28.03 84.27-29.3 76.07-29.3 76.07-28.03 79.98-28.03 71.82-4.98 62.98-28.03 66.89-28.03 66.89-29.3 55.85-29.3 55.85-28.03 58.78-28.03 68.06-3.37Q69.14-0.49 69.92-0.05L69.92-0.05Q70.41 0.24 71.19 0.24L71.19 0.24Z" opacity="1" transform="matrix(1,0,0,1,0,0)" fill="#ffffff" class="wordmark-text-0" data-fill-palette-color="primary" id="text-0"></path></svg></g></svg></g></svg></g></svg></g></svg></g></svg></g></svg></g><path d="M218.164 73.699L218.164 19.991 10.946 19.991 10.946 227.209 218.164 227.209 218.164 173.501 210.246 173.501 210.246 219.291 18.864 219.291 18.864 27.909 210.246 27.909 210.246 73.699Z" fill="#36d4f0" stroke="transparent" data-fill-palette-color="tertiary"></path></svg></g><defs></defs></svg><rect width="395.52" height="247.2" fill="none" stroke="none" visibility="hidden"></rect></g></svg></g></svg>